<svg width="1357" height="313" viewBox="0 0 1357 313" fill="none" xmlns="http://www.w3.org/2000/svg">
<path d="M152.326 18.5H292.153V158.326C292.153 235.55 229.55 298.153 152.326 298.153C75.1022 298.153 12.5 235.55 12.5 158.326C12.5002 81.1024 75.1024 18.5002 152.326 18.5Z" stroke="#E95024" stroke-width="25"/>
<path d="M1256.76 19.5457C1268.49 21.1708 1277.86 23.6289 1286 27.6531C1294.15 31.6798 1301.04 37.2617 1307.85 45.1003L1307.99 45.2644L1307.97 45.4812L1303.53 87.5847H1355.65L1355.57 88.157C1353.31 103.51 1349.99 114.467 1341.33 121.3C1332.74 128.078 1319 130.703 1296.2 129.818L1276.81 242.012L1276.82 242.013C1276.37 245.437 1276.15 247.856 1276.15 249.288C1276.15 255.463 1278.03 259.855 1281.68 262.586C1285.38 265.262 1291.33 266.645 1299.65 266.645C1306.17 266.645 1326.18 267.134 1332.82 266.646L1333.45 266.6L1333.35 267.221C1331.03 282.235 1325.21 293.171 1315.75 300.153C1306.3 307.125 1293.3 310.095 1276.72 309.351C1255.88 309.351 1240.42 305.679 1230.43 298.246C1220.41 290.79 1215.43 279.328 1215.43 263.965C1215.43 258.956 1215.97 253.423 1217.04 247.368L1237.44 129.218V129.217L1244.63 87.9978L1256.2 19.9568L1256.28 19.4792L1256.76 19.5457Z" fill="#E95024" stroke="#E95024"/>
<path d="M1181.63 0.5C1193.12 0.5 1204.83 1.27627 1216.75 2.82812L1217.27 2.89551L1217.18 3.4082C1214.9 16.6718 1212.58 26.2247 1208.31 32.4854C1206.17 35.6323 1203.53 37.9533 1200.16 39.498C1196.8 41.0396 1192.74 41.7966 1187.77 41.8623H1187.76C1177.75 41.8623 1169.91 44.1385 1164.18 48.6348C1158.46 53.1272 1154.78 59.8842 1153.2 68.9678L1149.97 87.584H1197.76L1197.73 88.1172C1196.77 102.614 1194.8 113.336 1187.01 120.287C1179.28 127.184 1165.93 130.255 1142.6 129.929L1112.28 306.001L1112.21 306.417H1053.34L1053.44 305.832L1083.83 129.34V129.339L1091.03 87.998L1094.23 69.043V69.041C1098.07 46.8481 1107.36 29.8496 1122.14 18.0986C1136.91 6.34834 1156.76 0.500043 1181.63 0.5Z" fill="#E95024" stroke="#E95024"/>
<path d="M1035.78 87.584L1035.68 88.1689L998.091 306.002L998.02 306.417H938.753L938.854 305.832L976.444 87.999L976.516 87.584H1035.78ZM1020.93 0.5C1031.7 0.500007 1039.47 2.04615 1044.13 5.23242C1048.93 8.45349 1051.29 13.9006 1051.29 21.4258C1051.29 24.9597 1050.97 28.4128 1050.34 31.7852L1050.34 31.7861C1048.29 43.4122 1044.44 51.5501 1038.7 56.0654L1038.7 56.0645C1032.87 60.655 1023.4 62.8994 1010.4 62.8994C999.534 62.8994 991.674 61.3523 986.923 58.167L986.919 58.1641C982.207 54.9424 979.902 49.5381 979.902 42.0957C979.902 39.5286 980.263 36.0327 980.976 31.6201L980.977 31.6113C983.029 20.1458 986.884 12.0539 992.62 7.45898L992.623 7.45703C998.533 2.78543 1008 0.5 1020.93 0.5Z" fill="#E95024" stroke="#E95024"/>
<path d="M684.161 89.6074L684.173 89.8457L691.774 251.974L740.148 142.062L740.653 140.938C745.891 129.425 751.805 120.862 758.406 115.266C765.226 109.484 773.103 106.591 782.027 106.591C790.953 106.591 797.968 109.527 803.041 115.415L803.511 115.968C808.305 121.773 811.337 130.507 812.636 142.134L825.312 251.492L885.293 89.7705L885.354 89.6074H939.722L939.577 89.9541L861.922 275.914L861.921 275.915C860.647 278.926 859.553 281.749 858.545 284.387C857.537 287.023 856.613 289.477 855.683 291.742C853.821 296.271 851.921 300.073 849.224 303.12C843.813 309.234 835.26 312.25 817.656 312.25C808.066 312.25 800.468 309.277 794.893 303.31L794.891 303.309C789.406 297.349 785.798 288.226 784.038 275.977V275.976L769.855 175.658L724.044 275.921V275.922C722.665 278.934 721.454 281.758 720.322 284.396C719.191 287.034 718.138 289.487 717.078 291.753C714.96 296.283 712.806 300.082 709.92 303.127C704.131 309.233 695.45 312.25 678.402 312.25C668.481 312.25 660.796 309.278 655.385 303.307L655.384 303.306C650.23 297.528 647.038 288.665 645.777 276.757L645.661 275.595L628.098 89.8809L628.072 89.6074H684.161Z" fill="#E95024" stroke="#E95024" stroke-width="0.5"/>
<path d="M542.663 16.6174C556.735 16.6174 569.117 17.3654 581.033 18.135C592.951 18.9047 604.4 19.6957 616.619 19.7825C617.947 19.7919 618.988 20.9376 618.857 22.262L614.198 69.2542C614.071 70.5378 612.89 71.4498 611.616 71.2581C585.389 67.3116 564.104 65.3401 547.758 65.3401C542.248 65.3401 538.476 65.3809 536.438 65.4622H536.435C533.509 65.5435 529.603 65.7871 524.718 66.1946L524.719 66.1956C519.928 66.6026 515.898 67.2125 512.627 68.0237L512.619 68.0256C503.754 69.8965 496.906 72.697 492.059 76.4163L492.06 76.4172C486.245 80.9439 482.632 87.0048 481.221 94.6125C480.69 97.4517 480.426 100.084 480.426 102.511C480.78 107.214 481.574 111.01 482.801 113.907C484.11 116.711 486.341 119.206 489.509 121.387C491.636 122.769 493.763 124.029 495.889 125.167C497.559 126.054 500.387 127.191 504.385 128.576H504.384L513.974 131.509H513.973L525.161 134.442C527.366 134.927 528.927 135.336 529.834 135.667C542.368 139.012 552.866 142.603 561.322 146.442C569.783 150.201 576.915 154.698 582.714 159.936L583.258 160.419C594.6 170.631 600.262 184.731 600.262 202.688C600.262 209.065 599.593 215.971 598.258 223.403C592.916 254.359 579.198 276.568 557.085 289.986V289.987C535.881 302.739 506.904 309.102 470.178 309.102H389.166C387.924 309.102 386.913 308.095 386.913 306.852V262.784C386.913 261.543 387.916 260.534 389.159 260.534H476.31C492.91 260.534 505.841 258.253 515.123 253.711C525.076 248.618 531.304 239.197 533.782 225.393C534.225 222.383 534.444 220.117 534.444 218.588C534.444 209.071 529.708 201.563 520.174 196.055V196.054C515.052 193.219 505.677 189.727 492.03 185.578C491.953 185.555 491.881 185.514 491.821 185.459C491.813 185.452 491.803 185.448 491.792 185.448H491.729C491.612 185.447 491.498 185.404 491.41 185.325H491.33C491.212 185.325 491.099 185.281 491.011 185.203H490.93C490.811 185.203 490.697 185.159 490.608 185.079C490.559 185.079 490.51 185.073 490.463 185.059C481.237 182.209 474.09 179.846 469.024 177.971C454.263 172.504 443.346 166.866 436.294 161.051V161.05C422.639 149.994 416.031 135.572 416.476 117.805H416.475C416.475 111.755 417.054 105.665 418.212 99.5344C423.47 69.4672 436.283 48.2642 456.679 35.9758L457.655 35.3977C468.151 29.1954 481.553 22.5766 495.011 19.7961L496.286 19.5422C509.532 16.9931 524.844 16.6174 542.663 16.6174Z" fill="#E95024" stroke="#E95024" stroke-width="0.5"/>
</svg>
